{
    "asset" : {
        "generator" : "Khronos glTF Blender I/O v3.4.50",
        "version" : "2.0"
    },
    "scene" : 0,
    "scenes" : [
        {
            "name" : "Scene",
            "nodes" : [
                0,
                1
            ]
        }
    ],
    "nodes" : [
        {
            "mesh" : 0,
            "name" : "Plane_Baked",
            "scale" : [
                7.901276111602783,
                7.901276111602783,
                7.901276111602783
            ]
        },
        {
            "mesh" : 1,
            "name" : "Plane.003_Baked",
            "rotation" : [
                -0.7071068286895752,
                0,
                0.7071068286895752,
                1.0448999177015139e-07
            ],
            "scale" : [
                3.1540627479553223,
                2.1626639366149902,
                2.235133409500122
            ],
            "translation" : [
                0,
                4.637470245361328,
                0
            ]
        }
    ],
    "materials" : [
        {
            "doubleSided" : true,
            "name" : "MergedBake_Baked",
            "pbrMetallicRoughness" : {
                "baseColorTexture" : {
                    "index" : 0
                },
                "metallicFactor" : 0,
                "roughnessFactor" : 0.5
            }
        }
    ],
    "meshes" : [
        {
            "name" : "Plane.001",
            "primitives" : [
                {
                    "attributes" : {
                        "POSITION" : 0,
                        "TEXCOORD_0" : 1,
                        "NORMAL" : 2
                    },
                    "indices" : 3,
                    "material" : 0
                }
            ]
        },
        {
            "name" : "Plane.003",
            "primitives" : [
                {
                    "attributes" : {
                        "POSITION" : 4,
                        "TEXCOORD_0" : 5,
                        "NORMAL" : 6
                    },
                    "indices" : 7,
                    "material" : 0
                }
            ]
        }
    ],
    "textures" : [
        {
            "sampler" : 0,
            "source" : 0
        }
    ],
    "images" : [
        {
            "bufferView" : 4,
            "mimeType" : "image/jpeg",
            "name" : "MergedBake_Bake8_PBR_Diffuse"
        }
    ],
    "accessors" : [
        {
            "bufferView" : 0,
            "componentType" : 5126,
            "count" : 4,
            "max" : [
                1,
                0,
                1
            ],
            "min" : [
                -1,
                0,
                -1
            ],
            "type" : "VEC3"
        },
        {
            "bufferView" : 1,
            "componentType" : 5126,
            "count" : 4,
            "type" : "VEC2"
        },
        {
            "bufferView" : 2,
            "componentType" : 5126,
            "count" : 4,
            "type" : "VEC3"
        },
        {
            "bufferView" : 3,
            "componentType" : 5123,
            "count" : 6,
            "type" : "SCALAR"
        },
        {
            "bufferView" : 5,
            "componentType" : 5126,
            "count" : 3997,
            "max" : [
                1.0616109371185303,
                2.145911455154419,
                1.0535324811935425
            ],
            "min" : [
                -1.0569547414779663,
                -2.776247024536133,
                -1.0302138328552246
            ],
            "type" : "VEC3"
        },
        {
            "bufferView" : 6,
            "componentType" : 5126,
            "count" : 3997,
            "type" : "VEC2"
        },
        {
            "bufferView" : 7,
            "componentType" : 5126,
            "count" : 3997,
            "type" : "VEC3"
        },
        {
            "bufferView" : 8,
            "componentType" : 5123,
            "count" : 9690,
            "type" : "SCALAR"
        }
    ],
    "bufferViews" : [
        {
            "buffer" : 0,
            "byteLength" : 48,
            "byteOffset" : 0,
            "target" : 34962
        },
        {
            "buffer" : 0,
            "byteLength" : 32,
            "byteOffset" : 48,
            "target" : 34962
        },
        {
            "buffer" : 0,
            "byteLength" : 48,
            "byteOffset" : 80,
            "target" : 34962
        },
        {
            "buffer" : 0,
            "byteLength" : 12,
            "byteOffset" : 128,
            "target" : 34963
        },
        {
            "buffer" : 0,
            "byteLength" : 1216577,
            "byteOffset" : 140
        },
        {
            "buffer" : 0,
            "byteLength" : 47964,
            "byteOffset" : 1216720,
            "target" : 34962
        },
        {
            "buffer" : 0,
            "byteLength" : 31976,
            "byteOffset" : 1264684,
            "target" : 34962
        },
        {
            "buffer" : 0,
            "byteLength" : 47964,
            "byteOffset" : 1296660,
            "target" : 34962
        },
        {
            "buffer" : 0,
            "byteLength" : 19380,
            "byteOffset" : 1344624,
            "target" : 34963
        }
    ],
    "samplers" : [
        {
            "magFilter" : 9729,
            "minFilter" : 9987
        }
    ],
    "buffers" : [
        {
            "byteLength" : 1364004,
            "uri" : "data:application/octet-stream;base64,"
        }
    ]
}
